<?xml version="1.0" encoding="UTF-8" standalone="no"?>
<!DOCTYPE svg PUBLIC "-//W3C//DTD SVG 1.1//EN"
 "http://www.w3.org/Graphics/SVG/1.1/DTD/svg11.dtd">
<!-- Generated by graphviz version 2.38.0 (20140413.2041)
 -->
<!-- Title: G Pages: 1 -->
<svg width="1415pt" height="255pt"
 viewBox="0.00 0.00 1415.20 255.24" xmlns="http://www.w3.org/2000/svg" xmlns:xlink="http://www.w3.org/1999/xlink">
<g id="graph0" class="graph" transform="scale(1 1) rotate(0) translate(21.6 233.638)">
<title>G</title>
<polygon fill="#111111" stroke="none" points="-21.6,21.6 -21.6,-233.638 1393.6,-233.638 1393.6,21.6 -21.6,21.6"/>
<!-- scripts/minibattle/exmini/SIJIWUYU_Aud.ts -->
<g id="node1" class="node"><title>scripts/minibattle/exmini/SIJIWUYU_Aud.ts</title>
<path fill="none" stroke="#cfffac" d="M1364.33,-126C1364.33,-126 1110.67,-126 1110.67,-126 1106.83,-126 1103,-122.167 1103,-118.333 1103,-118.333 1103,-110.667 1103,-110.667 1103,-106.833 1106.83,-103 1110.67,-103 1110.67,-103 1364.33,-103 1364.33,-103 1368.17,-103 1372,-106.833 1372,-110.667 1372,-110.667 1372,-118.333 1372,-118.333 1372,-122.167 1368.17,-126 1364.33,-126"/>
<text text-anchor="middle" x="1237.5" y="-110.8" font-family="Arial" font-size="14.00" fill="#cfffac">scripts/minibattle/exmini/SIJIWUYU_Aud.ts</text>
</g>
<!-- scripts/minibattle/exmini/SIJIWUYU_GameManager.ts -->
<g id="node2" class="node"><title>scripts/minibattle/exmini/SIJIWUYU_GameManager.ts</title>
<path fill="none" stroke="#ff6c60" d="M730.333,-144C730.333,-144 408.667,-144 408.667,-144 404.833,-144 401,-140.167 401,-136.333 401,-136.333 401,-128.667 401,-128.667 401,-124.833 404.833,-121 408.667,-121 408.667,-121 730.333,-121 730.333,-121 734.167,-121 738,-124.833 738,-128.667 738,-128.667 738,-136.333 738,-136.333 738,-140.167 734.167,-144 730.333,-144"/>
<text text-anchor="middle" x="569.5" y="-128.8" font-family="Arial" font-size="14.00" fill="#ff6c60">scripts/minibattle/exmini/SIJIWUYU_GameManager.ts</text>
</g>
<!-- scripts/minibattle/exmini/SIJIWUYU_GameManager.ts&#45;&gt;scripts/minibattle/exmini/SIJIWUYU_Aud.ts -->
<g id="edge1" class="edge"><title>scripts/minibattle/exmini/SIJIWUYU_GameManager.ts&#45;&gt;scripts/minibattle/exmini/SIJIWUYU_Aud.ts</title>
<path fill="none" stroke="#757575" d="M738.13,-127.969C847.394,-125.016 988.492,-121.203 1092.65,-118.388"/>
<polygon fill="#757575" stroke="#757575" points="1093.03,-121.879 1102.93,-118.11 1092.84,-114.882 1093.03,-121.879"/>
</g>
<!-- scripts/minibattle/exmini/SIJIWUYU_UIPanel.ts -->
<g id="node3" class="node"><title>scripts/minibattle/exmini/SIJIWUYU_UIPanel.ts</title>
<path fill="none" stroke="#ff6c60" d="M1059.33,-106C1059.33,-106 781.667,-106 781.667,-106 777.833,-106 774,-102.167 774,-98.3333 774,-98.3333 774,-90.6667 774,-90.6667 774,-86.8333 777.833,-83 781.667,-83 781.667,-83 1059.33,-83 1059.33,-83 1063.17,-83 1067,-86.8333 1067,-90.6667 1067,-90.6667 1067,-98.3333 1067,-98.3333 1067,-102.167 1063.17,-106 1059.33,-106"/>
<text text-anchor="middle" x="920.5" y="-90.8" font-family="Arial" font-size="14.00" fill="#ff6c60">scripts/minibattle/exmini/SIJIWUYU_UIPanel.ts</text>
</g>
<!-- scripts/minibattle/exmini/SIJIWUYU_GameManager.ts&#45;&gt;scripts/minibattle/exmini/SIJIWUYU_UIPanel.ts -->
<g id="edge2" class="edge"><title>scripts/minibattle/exmini/SIJIWUYU_GameManager.ts&#45;&gt;scripts/minibattle/exmini/SIJIWUYU_UIPanel.ts</title>
<path fill="none" stroke="#757575" d="M628.915,-120.948C665.962,-115.72 715.785,-109.788 763.705,-104.748"/>
<polygon fill="#757575" stroke="#757575" points="764.313,-108.204 773.896,-103.687 763.588,-101.241 764.313,-108.204"/>
</g>
<!-- scripts/minibattle/exmini/SIJIWUYU_UIPanel.ts&#45;&gt;scripts/minibattle/exmini/SIJIWUYU_Aud.ts -->
<g id="edge9" class="edge"><title>scripts/minibattle/exmini/SIJIWUYU_UIPanel.ts&#45;&gt;scripts/minibattle/exmini/SIJIWUYU_Aud.ts</title>
<path fill="none" stroke="#757575" d="M1067.01,-103.739C1075.59,-104.283 1084.21,-104.831 1092.78,-105.375"/>
<polygon fill="#757575" stroke="#757575" points="1092.6,-108.87 1102.8,-106.011 1093.04,-101.884 1092.6,-108.87"/>
</g>
<!-- scripts/minibattle/exmini/SIJIWUYU_UIPanel.ts&#45;&gt;scripts/minibattle/exmini/SIJIWUYU_GameManager.ts -->
<g id="edge10" class="edge"><title>scripts/minibattle/exmini/SIJIWUYU_UIPanel.ts&#45;&gt;scripts/minibattle/exmini/SIJIWUYU_GameManager.ts</title>
<path fill="none" stroke="#757575" d="M861.152,-106.043C829.723,-110.478 789.084,-115.423 748.21,-119.899"/>
<polygon fill="#757575" stroke="#757575" points="747.664,-116.438 738.1,-120.997 748.419,-123.397 747.664,-116.438"/>
</g>
<!-- scripts/minibattle/exmini/SIJIWUYU_Level.ts -->
<g id="node4" class="node"><title>scripts/minibattle/exmini/SIJIWUYU_Level.ts</title>
<path fill="none" stroke="#c6c5fe" d="M313.833,-104C313.833,-104 51.1667,-104 51.1667,-104 47.3333,-104 43.5,-100.167 43.5,-96.3333 43.5,-96.3333 43.5,-88.6667 43.5,-88.6667 43.5,-84.8333 47.3333,-81 51.1667,-81 51.1667,-81 313.833,-81 313.833,-81 317.667,-81 321.5,-84.8333 321.5,-88.6667 321.5,-88.6667 321.5,-96.3333 321.5,-96.3333 321.5,-100.167 317.667,-104 313.833,-104"/>
<text text-anchor="middle" x="182.5" y="-88.8" font-family="Arial" font-size="14.00" fill="#c6c5fe">scripts/minibattle/exmini/SIJIWUYU_Level.ts</text>
</g>
<!-- scripts/minibattle/exmini/SIJIWUYU_Level.ts&#45;&gt;scripts/minibattle/exmini/SIJIWUYU_Aud.ts -->
<g id="edge3" class="edge"><title>scripts/minibattle/exmini/SIJIWUYU_Level.ts&#45;&gt;scripts/minibattle/exmini/SIJIWUYU_Aud.ts</title>
<path fill="none" stroke="#757575" d="M321.93,-97.8443C336.943,-101.518 351.612,-106.588 365,-113.5 386.252,-124.472 379.151,-143.769 401,-153.5 680.614,-278.029 1066.22,-171.041 1193.7,-129.37"/>
<polygon fill="#757575" stroke="#757575" points="1195.08,-132.598 1203.48,-126.134 1192.88,-125.952 1195.08,-132.598"/>
</g>
<!-- scripts/minibattle/exmini/SIJIWUYU_Level.ts&#45;&gt;scripts/minibattle/exmini/SIJIWUYU_GameManager.ts -->
<g id="edge4" class="edge"><title>scripts/minibattle/exmini/SIJIWUYU_Level.ts&#45;&gt;scripts/minibattle/exmini/SIJIWUYU_GameManager.ts</title>
<path fill="none" stroke="#757575" d="M294.341,-104.016C342.349,-109.004 398.674,-114.856 447.742,-119.954"/>
<polygon fill="#757575" stroke="#757575" points="447.466,-123.444 457.774,-120.996 448.19,-116.481 447.466,-123.444"/>
</g>
<!-- scripts/minibattle/exmini/SIJIWUYU_Level.ts&#45;&gt;scripts/minibattle/exmini/SIJIWUYU_UIPanel.ts -->
<g id="edge7" class="edge"><title>scripts/minibattle/exmini/SIJIWUYU_Level.ts&#45;&gt;scripts/minibattle/exmini/SIJIWUYU_UIPanel.ts</title>
<path fill="none" stroke="#757575" d="M321.504,-92.875C447.261,-93.2167 632.831,-93.721 763.832,-94.077"/>
<polygon fill="#757575" stroke="#757575" points="763.948,-97.5772 773.958,-94.1045 763.967,-90.5772 763.948,-97.5772"/>
</g>
<!-- scripts/minibattle/exmini/SIJIWUYU_Player.ts -->
<g id="node5" class="node"><title>scripts/minibattle/exmini/SIJIWUYU_Player.ts</title>
<path fill="none" stroke="#cfffac" d="M703.333,-64C703.333,-64 435.667,-64 435.667,-64 431.833,-64 428,-60.1667 428,-56.3333 428,-56.3333 428,-48.6667 428,-48.6667 428,-44.8333 431.833,-41 435.667,-41 435.667,-41 703.333,-41 703.333,-41 707.167,-41 711,-44.8333 711,-48.6667 711,-48.6667 711,-56.3333 711,-56.3333 711,-60.1667 707.167,-64 703.333,-64"/>
<text text-anchor="middle" x="569.5" y="-48.8" font-family="Arial" font-size="14.00" fill="#cfffac">scripts/minibattle/exmini/SIJIWUYU_Player.ts</text>
</g>
<!-- scripts/minibattle/exmini/SIJIWUYU_Level.ts&#45;&gt;scripts/minibattle/exmini/SIJIWUYU_Player.ts -->
<g id="edge5" class="edge"><title>scripts/minibattle/exmini/SIJIWUYU_Level.ts&#45;&gt;scripts/minibattle/exmini/SIJIWUYU_Player.ts</title>
<path fill="none" stroke="#757575" d="M294.341,-80.984C342.349,-75.9962 398.674,-70.1443 447.742,-65.0463"/>
<polygon fill="#757575" stroke="#757575" points="448.19,-68.5187 457.774,-64.0039 447.466,-61.5562 448.19,-68.5187"/>
</g>
<!-- scripts/minibattle/exmini/SIJIWUYU_Skirt.ts -->
<g id="node6" class="node"><title>scripts/minibattle/exmini/SIJIWUYU_Skirt.ts</title>
<path fill="none" stroke="#cfffac" d="M697.333,-23C697.333,-23 441.667,-23 441.667,-23 437.833,-23 434,-19.1667 434,-15.3333 434,-15.3333 434,-7.66667 434,-7.66667 434,-3.83333 437.833,-0 441.667,-0 441.667,-0 697.333,-0 697.333,-0 701.167,-0 705,-3.83333 705,-7.66667 705,-7.66667 705,-15.3333 705,-15.3333 705,-19.1667 701.167,-23 697.333,-23"/>
<text text-anchor="middle" x="569.5" y="-7.8" font-family="Arial" font-size="14.00" fill="#cfffac">scripts/minibattle/exmini/SIJIWUYU_Skirt.ts</text>
</g>
<!-- scripts/minibattle/exmini/SIJIWUYU_Level.ts&#45;&gt;scripts/minibattle/exmini/SIJIWUYU_Skirt.ts -->
<g id="edge6" class="edge"><title>scripts/minibattle/exmini/SIJIWUYU_Level.ts&#45;&gt;scripts/minibattle/exmini/SIJIWUYU_Skirt.ts</title>
<path fill="none" stroke="#757575" d="M219.293,-80.9092C262.087,-67.4526 336.081,-45.4534 401,-32.5 416.233,-29.4606 432.338,-26.7796 448.3,-24.4389"/>
<polygon fill="#757575" stroke="#757575" points="448.807,-27.9022 458.212,-23.0252 447.818,-20.9723 448.807,-27.9022"/>
</g>
<!-- scripts/minibattle/exmini/SIJIWUYU_Page.ts -->
<g id="node7" class="node"><title>scripts/minibattle/exmini/SIJIWUYU_Page.ts</title>
<path fill="none" stroke="#c6c5fe" d="M1051.33,-65C1051.33,-65 789.667,-65 789.667,-65 785.833,-65 782,-61.1667 782,-57.3333 782,-57.3333 782,-49.6667 782,-49.6667 782,-45.8333 785.833,-42 789.667,-42 789.667,-42 1051.33,-42 1051.33,-42 1055.17,-42 1059,-45.8333 1059,-49.6667 1059,-49.6667 1059,-57.3333 1059,-57.3333 1059,-61.1667 1055.17,-65 1051.33,-65"/>
<text text-anchor="middle" x="920.5" y="-49.8" font-family="Arial" font-size="14.00" fill="#c6c5fe">scripts/minibattle/exmini/SIJIWUYU_Page.ts</text>
</g>
<!-- scripts/minibattle/exmini/SIJIWUYU_Page.ts&#45;&gt;scripts/minibattle/exmini/SIJIWUYU_Aud.ts -->
<g id="edge8" class="edge"><title>scripts/minibattle/exmini/SIJIWUYU_Page.ts&#45;&gt;scripts/minibattle/exmini/SIJIWUYU_Aud.ts</title>
<path fill="none" stroke="#757575" d="M1010.19,-65.0258C1029,-67.8261 1048.7,-71.0263 1067,-74.5 1105.9,-81.8822 1149.36,-92.1786 1182.53,-100.476"/>
<polygon fill="#757575" stroke="#757575" points="1181.92,-103.933 1192.47,-102.982 1183.63,-97.1452 1181.92,-103.933"/>
</g>
<!-- scripts/rcframework/component/DlgBasicComponent.ts -->
<g id="node8" class="node"><title>scripts/rcframework/component/DlgBasicComponent.ts</title>
<path fill="none" stroke="#cfffac" d="M357.333,-145C357.333,-145 7.66667,-145 7.66667,-145 3.83333,-145 0,-141.167 0,-137.333 0,-137.333 0,-129.667 0,-129.667 0,-125.833 3.83333,-122 7.66667,-122 7.66667,-122 357.333,-122 357.333,-122 361.167,-122 365,-125.833 365,-129.667 365,-129.667 365,-137.333 365,-137.333 365,-141.167 361.167,-145 357.333,-145"/>
<text text-anchor="middle" x="182.5" y="-129.8" font-family="Arial" font-size="14.00" fill="#cfffac">scripts/rcframework/component/DlgBasicComponent.ts</text>
</g>
</g>
</svg>
