<?xml version="1.0" encoding="UTF-8" standalone="no"?>
<!DOCTYPE svg PUBLIC "-//W3C//DTD SVG 1.1//EN"
 "http://www.w3.org/Graphics/SVG/1.1/DTD/svg11.dtd">
<!-- Generated by graphviz version 2.38.0 (20140413.2041)
 -->
<!-- Title: G Pages: 1 -->
<svg width="1493pt" height="350pt"
 viewBox="0.00 0.00 1493.20 350.20" xmlns="http://www.w3.org/2000/svg" xmlns:xlink="http://www.w3.org/1999/xlink">
<g id="graph0" class="graph" transform="scale(1 1) rotate(0) translate(21.6 328.6)">
<title>G</title>
<polygon fill="#111111" stroke="none" points="-21.6,21.6 -21.6,-328.6 1471.6,-328.6 1471.6,21.6 -21.6,21.6"/>
<!-- scripts/minibattle/exmini/SIJIWUYU_Aud.ts -->
<g id="node1" class="node"><title>scripts/minibattle/exmini/SIJIWUYU_Aud.ts</title>
<path fill="none" stroke="#cfffac" d="M1442.33,-83C1442.33,-83 1169.67,-83 1169.67,-83 1165.83,-83 1162,-79.1667 1162,-75.3333 1162,-75.3333 1162,-67.6667 1162,-67.6667 1162,-63.8333 1165.83,-60 1169.67,-60 1169.67,-60 1442.33,-60 1442.33,-60 1446.17,-60 1450,-63.8333 1450,-67.6667 1450,-67.6667 1450,-75.3333 1450,-75.3333 1450,-79.1667 1446.17,-83 1442.33,-83"/>
<text text-anchor="middle" x="1306" y="-67.8" font-family="Arial" font-size="14.00" fill="#cfffac">scripts/minibattle/exmini/SIJIWUYU_Aud.ts</text>
</g>
<!-- scripts/minibattle/exmini/SIJIWUYU_AutoChildLabel.ts -->
<g id="node2" class="node"><title>scripts/minibattle/exmini/SIJIWUYU_AutoChildLabel.ts</title>
<path fill="none" stroke="#cfffac" d="M364.333,-184C364.333,-184 20.6667,-184 20.6667,-184 16.8333,-184 13,-180.167 13,-176.333 13,-176.333 13,-168.667 13,-168.667 13,-164.833 16.8333,-161 20.6667,-161 20.6667,-161 364.333,-161 364.333,-161 368.167,-161 372,-164.833 372,-168.667 372,-168.667 372,-176.333 372,-176.333 372,-180.167 368.167,-184 364.333,-184"/>
<text text-anchor="middle" x="192.5" y="-168.8" font-family="Arial" font-size="14.00" fill="#cfffac">scripts/minibattle/exmini/SIJIWUYU_AutoChildLabel.ts</text>
</g>
<!-- scripts/minibattle/exmini/SIJIWUYU_ClickOrderManager.ts -->
<g id="node3" class="node"><title>scripts/minibattle/exmini/SIJIWUYU_ClickOrderManager.ts</title>
<path fill="none" stroke="#c6c5fe" d="M377.333,-45C377.333,-45 7.66667,-45 7.66667,-45 3.83333,-45 0,-41.1667 0,-37.3333 0,-37.3333 0,-29.6667 0,-29.6667 0,-25.8333 3.83333,-22 7.66667,-22 7.66667,-22 377.333,-22 377.333,-22 381.167,-22 385,-25.8333 385,-29.6667 385,-29.6667 385,-37.3333 385,-37.3333 385,-41.1667 381.167,-45 377.333,-45"/>
<text text-anchor="middle" x="192.5" y="-29.8" font-family="Arial" font-size="14.00" fill="#c6c5fe">scripts/minibattle/exmini/SIJIWUYU_ClickOrderManager.ts</text>
</g>
<!-- scripts/minibattle/exmini/SIJIWUYU_GameManager.ts -->
<g id="node4" class="node"><title>scripts/minibattle/exmini/SIJIWUYU_GameManager.ts</title>
<path fill="none" stroke="#ff6c60" d="M769.333,-65C769.333,-65 428.667,-65 428.667,-65 424.833,-65 421,-61.1667 421,-57.3333 421,-57.3333 421,-49.6667 421,-49.6667 421,-45.8333 424.833,-42 428.667,-42 428.667,-42 769.333,-42 769.333,-42 773.167,-42 777,-45.8333 777,-49.6667 777,-49.6667 777,-57.3333 777,-57.3333 777,-61.1667 773.167,-65 769.333,-65"/>
<text text-anchor="middle" x="599" y="-49.8" font-family="Arial" font-size="14.00" fill="#ff6c60">scripts/minibattle/exmini/SIJIWUYU_GameManager.ts</text>
</g>
<!-- scripts/minibattle/exmini/SIJIWUYU_ClickOrderManager.ts&#45;&gt;scripts/minibattle/exmini/SIJIWUYU_GameManager.ts -->
<g id="edge1" class="edge"><title>scripts/minibattle/exmini/SIJIWUYU_ClickOrderManager.ts&#45;&gt;scripts/minibattle/exmini/SIJIWUYU_GameManager.ts</title>
<path fill="none" stroke="#757575" d="M385.089,-42.9729C393.675,-43.3974 402.287,-43.8232 410.862,-44.2472"/>
<polygon fill="#757575" stroke="#757575" points="410.747,-47.7457 420.908,-44.7439 411.093,-40.7542 410.747,-47.7457"/>
</g>
<!-- scripts/minibattle/exmini/SIJIWUYU_MoveOnClick.ts -->
<g id="node5" class="node"><title>scripts/minibattle/exmini/SIJIWUYU_MoveOnClick.ts</title>
<path fill="none" stroke="#cfffac" d="M764.833,-24C764.833,-24 433.167,-24 433.167,-24 429.333,-24 425.5,-20.1667 425.5,-16.3333 425.5,-16.3333 425.5,-8.66667 425.5,-8.66667 425.5,-4.83333 429.333,-1 433.167,-1 433.167,-1 764.833,-1 764.833,-1 768.667,-1 772.5,-4.83333 772.5,-8.66667 772.5,-8.66667 772.5,-16.3333 772.5,-16.3333 772.5,-20.1667 768.667,-24 764.833,-24"/>
<text text-anchor="middle" x="599" y="-8.8" font-family="Arial" font-size="14.00" fill="#cfffac">scripts/minibattle/exmini/SIJIWUYU_MoveOnClick.ts</text>
</g>
<!-- scripts/minibattle/exmini/SIJIWUYU_ClickOrderManager.ts&#45;&gt;scripts/minibattle/exmini/SIJIWUYU_MoveOnClick.ts -->
<g id="edge2" class="edge"><title>scripts/minibattle/exmini/SIJIWUYU_ClickOrderManager.ts&#45;&gt;scripts/minibattle/exmini/SIJIWUYU_MoveOnClick.ts</title>
<path fill="none" stroke="#757575" d="M385.089,-23.5535C395.197,-23.0287 405.34,-22.5021 415.418,-21.9789"/>
<polygon fill="#757575" stroke="#757575" points="415.665,-25.4709 425.47,-21.457 415.302,-18.4803 415.665,-25.4709"/>
</g>
<!-- scripts/minibattle/exmini/SIJIWUYU_GameManager.ts&#45;&gt;scripts/minibattle/exmini/SIJIWUYU_Aud.ts -->
<g id="edge3" class="edge"><title>scripts/minibattle/exmini/SIJIWUYU_GameManager.ts&#45;&gt;scripts/minibattle/exmini/SIJIWUYU_Aud.ts</title>
<path fill="none" stroke="#757575" d="M777.446,-58.0305C892.748,-60.9744 1041.54,-64.7734 1151.7,-67.5859"/>
<polygon fill="#757575" stroke="#757575" points="1151.81,-71.0899 1161.9,-67.8463 1151.99,-64.0921 1151.81,-71.0899"/>
</g>
<!-- scripts/minibattle/exmini/SIJIWUYU_UIPanel.ts -->
<g id="node7" class="node"><title>scripts/minibattle/exmini/SIJIWUYU_UIPanel.ts</title>
<path fill="none" stroke="#ff6c60" d="M1118.33,-103C1118.33,-103 820.667,-103 820.667,-103 816.833,-103 813,-99.1667 813,-95.3333 813,-95.3333 813,-87.6667 813,-87.6667 813,-83.8333 816.833,-80 820.667,-80 820.667,-80 1118.33,-80 1118.33,-80 1122.17,-80 1126,-83.8333 1126,-87.6667 1126,-87.6667 1126,-95.3333 1126,-95.3333 1126,-99.1667 1122.17,-103 1118.33,-103"/>
<text text-anchor="middle" x="969.5" y="-87.8" font-family="Arial" font-size="14.00" fill="#ff6c60">scripts/minibattle/exmini/SIJIWUYU_UIPanel.ts</text>
</g>
<!-- scripts/minibattle/exmini/SIJIWUYU_GameManager.ts&#45;&gt;scripts/minibattle/exmini/SIJIWUYU_UIPanel.ts -->
<g id="edge4" class="edge"><title>scripts/minibattle/exmini/SIJIWUYU_GameManager.ts&#45;&gt;scripts/minibattle/exmini/SIJIWUYU_UIPanel.ts</title>
<path fill="none" stroke="#757575" d="M776.964,-65.0034C819.46,-69.3308 862.473,-74.191 896.943,-78.6496"/>
<polygon fill="#757575" stroke="#757575" points="896.521,-82.1243 906.892,-79.9574 897.434,-75.184 896.521,-82.1243"/>
</g>
<!-- scripts/minibattle/exmini/SIJIWUYU_CustomMask.ts -->
<g id="node6" class="node"><title>scripts/minibattle/exmini/SIJIWUYU_CustomMask.ts</title>
<path fill="none" stroke="#cfffac" d="M357.333,-225C357.333,-225 27.6667,-225 27.6667,-225 23.8333,-225 20,-221.167 20,-217.333 20,-217.333 20,-209.667 20,-209.667 20,-205.833 23.8333,-202 27.6667,-202 27.6667,-202 357.333,-202 357.333,-202 361.167,-202 365,-205.833 365,-209.667 365,-209.667 365,-217.333 365,-217.333 365,-221.167 361.167,-225 357.333,-225"/>
<text text-anchor="middle" x="192.5" y="-209.8" font-family="Arial" font-size="14.00" fill="#cfffac">scripts/minibattle/exmini/SIJIWUYU_CustomMask.ts</text>
</g>
<!-- scripts/minibattle/exmini/SIJIWUYU_UIPanel.ts&#45;&gt;scripts/minibattle/exmini/SIJIWUYU_Aud.ts -->
<g id="edge11" class="edge"><title>scripts/minibattle/exmini/SIJIWUYU_UIPanel.ts&#45;&gt;scripts/minibattle/exmini/SIJIWUYU_Aud.ts</title>
<path fill="none" stroke="#757575" d="M1126.49,-82.1734C1134.9,-81.6702 1143.36,-81.1647 1151.76,-80.6621"/>
<polygon fill="#757575" stroke="#757575" points="1152.21,-84.1415 1161.99,-80.0508 1151.8,-77.154 1152.21,-84.1415"/>
</g>
<!-- scripts/minibattle/exmini/SIJIWUYU_UIPanel.ts&#45;&gt;scripts/minibattle/exmini/SIJIWUYU_GameManager.ts -->
<g id="edge12" class="edge"><title>scripts/minibattle/exmini/SIJIWUYU_UIPanel.ts&#45;&gt;scripts/minibattle/exmini/SIJIWUYU_GameManager.ts</title>
<path fill="none" stroke="#757575" d="M812.786,-82.1202C763.713,-77.3108 711.873,-71.5637 671.647,-66.3619"/>
<polygon fill="#757575" stroke="#757575" points="672.049,-62.8849 661.679,-65.0521 671.137,-69.8252 672.049,-62.8849"/>
</g>
<!-- scripts/minibattle/exmini/SIJIWUYU_Level.ts -->
<g id="node8" class="node"><title>scripts/minibattle/exmini/SIJIWUYU_Level.ts</title>
<path fill="none" stroke="#c6c5fe" d="M333.333,-143C333.333,-143 51.6667,-143 51.6667,-143 47.8333,-143 44,-139.167 44,-135.333 44,-135.333 44,-127.667 44,-127.667 44,-123.833 47.8333,-120 51.6667,-120 51.6667,-120 333.333,-120 333.333,-120 337.167,-120 341,-123.833 341,-127.667 341,-127.667 341,-135.333 341,-135.333 341,-139.167 337.167,-143 333.333,-143"/>
<text text-anchor="middle" x="192.5" y="-127.8" font-family="Arial" font-size="14.00" fill="#c6c5fe">scripts/minibattle/exmini/SIJIWUYU_Level.ts</text>
</g>
<!-- scripts/minibattle/exmini/SIJIWUYU_Level.ts&#45;&gt;scripts/minibattle/exmini/SIJIWUYU_Aud.ts -->
<g id="edge5" class="edge"><title>scripts/minibattle/exmini/SIJIWUYU_Level.ts&#45;&gt;scripts/minibattle/exmini/SIJIWUYU_Aud.ts</title>
<path fill="none" stroke="#757575" d="M341.137,-137.772C525.551,-143.478 850.387,-146.508 1126,-112.5 1170.4,-107.022 1219.9,-95.2327 1255.57,-85.6959"/>
<polygon fill="#757575" stroke="#757575" points="1256.51,-89.0666 1265.25,-83.0728 1254.68,-82.3103 1256.51,-89.0666"/>
</g>
<!-- scripts/minibattle/exmini/SIJIWUYU_Level.ts&#45;&gt;scripts/minibattle/exmini/SIJIWUYU_GameManager.ts -->
<g id="edge6" class="edge"><title>scripts/minibattle/exmini/SIJIWUYU_Level.ts&#45;&gt;scripts/minibattle/exmini/SIJIWUYU_GameManager.ts</title>
<path fill="none" stroke="#757575" d="M239.032,-119.979C284.803,-108.661 357.484,-91.4047 421,-79.5 446.468,-74.7266 474.134,-70.3031 499.861,-66.5085"/>
<polygon fill="#757575" stroke="#757575" points="500.603,-69.9373 509.994,-65.0312 499.593,-63.0105 500.603,-69.9373"/>
</g>
<!-- scripts/minibattle/exmini/SIJIWUYU_Level.ts&#45;&gt;scripts/minibattle/exmini/SIJIWUYU_UIPanel.ts -->
<g id="edge9" class="edge"><title>scripts/minibattle/exmini/SIJIWUYU_Level.ts&#45;&gt;scripts/minibattle/exmini/SIJIWUYU_UIPanel.ts</title>
<path fill="none" stroke="#757575" d="M341.253,-122.106C367.799,-120.504 395.218,-118.905 421,-117.5 549.077,-110.518 694.067,-103.681 802.652,-98.771"/>
<polygon fill="#757575" stroke="#757575" points="802.882,-102.264 812.714,-98.3169 802.566,-95.2714 802.882,-102.264"/>
</g>
<!-- scripts/minibattle/exmini/SIJIWUYU_Player.ts -->
<g id="node9" class="node"><title>scripts/minibattle/exmini/SIJIWUYU_Player.ts</title>
<path fill="none" stroke="#cfffac" d="M742.333,-224C742.333,-224 455.667,-224 455.667,-224 451.833,-224 448,-220.167 448,-216.333 448,-216.333 448,-208.667 448,-208.667 448,-204.833 451.833,-201 455.667,-201 455.667,-201 742.333,-201 742.333,-201 746.167,-201 750,-204.833 750,-208.667 750,-208.667 750,-216.333 750,-216.333 750,-220.167 746.167,-224 742.333,-224"/>
<text text-anchor="middle" x="599" y="-208.8" font-family="Arial" font-size="14.00" fill="#cfffac">scripts/minibattle/exmini/SIJIWUYU_Player.ts</text>
</g>
<!-- scripts/minibattle/exmini/SIJIWUYU_Level.ts&#45;&gt;scripts/minibattle/exmini/SIJIWUYU_Player.ts -->
<g id="edge7" class="edge"><title>scripts/minibattle/exmini/SIJIWUYU_Level.ts&#45;&gt;scripts/minibattle/exmini/SIJIWUYU_Player.ts</title>
<path fill="none" stroke="#757575" d="M341.033,-136.544C356.354,-140.31 371.308,-145.483 385,-152.5 406.285,-163.409 399.733,-181.556 421,-192.5 426.594,-195.379 432.417,-197.926 438.397,-200.177"/>
<polygon fill="#757575" stroke="#757575" points="437.317,-203.507 447.912,-203.474 439.609,-196.893 437.317,-203.507"/>
</g>
<!-- scripts/minibattle/exmini/SIJIWUYU_Skirt.ts -->
<g id="node10" class="node"><title>scripts/minibattle/exmini/SIJIWUYU_Skirt.ts</title>
<path fill="none" stroke="#cfffac" d="M736.333,-183C736.333,-183 461.667,-183 461.667,-183 457.833,-183 454,-179.167 454,-175.333 454,-175.333 454,-167.667 454,-167.667 454,-163.833 457.833,-160 461.667,-160 461.667,-160 736.333,-160 736.333,-160 740.167,-160 744,-163.833 744,-167.667 744,-167.667 744,-175.333 744,-175.333 744,-179.167 740.167,-183 736.333,-183"/>
<text text-anchor="middle" x="599" y="-167.8" font-family="Arial" font-size="14.00" fill="#cfffac">scripts/minibattle/exmini/SIJIWUYU_Skirt.ts</text>
</g>
<!-- scripts/minibattle/exmini/SIJIWUYU_Level.ts&#45;&gt;scripts/minibattle/exmini/SIJIWUYU_Skirt.ts -->
<g id="edge8" class="edge"><title>scripts/minibattle/exmini/SIJIWUYU_Level.ts&#45;&gt;scripts/minibattle/exmini/SIJIWUYU_Skirt.ts</title>
<path fill="none" stroke="#757575" d="M309.955,-143.016C360.5,-148.014 419.819,-153.88 471.448,-158.986"/>
<polygon fill="#757575" stroke="#757575" points="471.37,-162.495 481.666,-159.996 472.059,-155.529 471.37,-162.495"/>
</g>
<!-- scripts/minibattle/exmini/SIJIWUYU_Page.ts -->
<g id="node11" class="node"><title>scripts/minibattle/exmini/SIJIWUYU_Page.ts</title>
<path fill="none" stroke="#c6c5fe" d="M1109.83,-23C1109.83,-23 829.167,-23 829.167,-23 825.333,-23 821.5,-19.1667 821.5,-15.3333 821.5,-15.3333 821.5,-7.66667 821.5,-7.66667 821.5,-3.83333 825.333,-0 829.167,-0 829.167,-0 1109.83,-0 1109.83,-0 1113.67,-0 1117.5,-3.83333 1117.5,-7.66667 1117.5,-7.66667 1117.5,-15.3333 1117.5,-15.3333 1117.5,-19.1667 1113.67,-23 1109.83,-23"/>
<text text-anchor="middle" x="969.5" y="-7.8" font-family="Arial" font-size="14.00" fill="#c6c5fe">scripts/minibattle/exmini/SIJIWUYU_Page.ts</text>
</g>
<!-- scripts/minibattle/exmini/SIJIWUYU_Page.ts&#45;&gt;scripts/minibattle/exmini/SIJIWUYU_Aud.ts -->
<g id="edge10" class="edge"><title>scripts/minibattle/exmini/SIJIWUYU_Page.ts&#45;&gt;scripts/minibattle/exmini/SIJIWUYU_Aud.ts</title>
<path fill="none" stroke="#757575" d="M1041.39,-23.0144C1067.95,-27.4181 1098.38,-32.5686 1126,-37.5 1162.4,-44 1202.89,-51.6538 1236.13,-58.0521"/>
<polygon fill="#757575" stroke="#757575" points="1235.73,-61.5376 1246.21,-59.9948 1237.05,-54.6643 1235.73,-61.5376"/>
</g>
<!-- scripts/rcframework/component/DlgBasicComponent.ts -->
<g id="node12" class="node"><title>scripts/rcframework/component/DlgBasicComponent.ts</title>
<path fill="none" stroke="#cfffac" d="M367.333,-266C367.333,-266 17.6667,-266 17.6667,-266 13.8333,-266 10,-262.167 10,-258.333 10,-258.333 10,-250.667 10,-250.667 10,-246.833 13.8333,-243 17.6667,-243 17.6667,-243 367.333,-243 367.333,-243 371.167,-243 375,-246.833 375,-250.667 375,-250.667 375,-258.333 375,-258.333 375,-262.167 371.167,-266 367.333,-266"/>
<text text-anchor="middle" x="192.5" y="-250.8" font-family="Arial" font-size="14.00" fill="#cfffac">scripts/rcframework/component/DlgBasicComponent.ts</text>
</g>
<!-- scripts/tools/SIJIWUYU_ReplaceLevelSprites.ts -->
<g id="node13" class="node"><title>scripts/tools/SIJIWUYU_ReplaceLevelSprites.ts</title>
<path fill="none" stroke="#cfffac" d="M345.833,-307C345.833,-307 39.1667,-307 39.1667,-307 35.3333,-307 31.5,-303.167 31.5,-299.333 31.5,-299.333 31.5,-291.667 31.5,-291.667 31.5,-287.833 35.3333,-284 39.1667,-284 39.1667,-284 345.833,-284 345.833,-284 349.667,-284 353.5,-287.833 353.5,-291.667 353.5,-291.667 353.5,-299.333 353.5,-299.333 353.5,-303.167 349.667,-307 345.833,-307"/>
<text text-anchor="middle" x="192.5" y="-291.8" font-family="Arial" font-size="14.00" fill="#cfffac">scripts/tools/SIJIWUYU_ReplaceLevelSprites.ts</text>
</g>
</g>
</svg>
